<svg xmlns="http://www.w3.org/2000/svg" viewBox="0 0 600 600" width="600" height="600"><defs><radialGradient id="bg" cx="50%" cy="40%" r="70%"><stop offset="0%" stop-color="#fff6e6"/><stop offset="100%" stop-color="#f0d9b0"/></radialGradient></defs><rect width="600" height="600" fill="url(#bg)"/><polygon points="272.0,197.0 285.3,283.4 233.8,172.5" fill="rgb(107,78,59)" stroke="#2d241633" stroke-width="0.6" stroke-linejoin="round"/><polygon points="272.0,197.0 378.1,273.2 285.3,283.4" fill="rgb(107,78,59)" stroke="#2d241633" stroke-width="0.6" stroke-linejoin="round"/><polygon points="272.0,197.0 377.0,178.7 378.1,273.2" fill="rgb(107,78,59)" stroke="#2d241633" stroke-width="0.6" stroke-linejoin="round"/><polygon points="285.3,283.4 327.3,330.2 378.1,273.2" fill="rgb(203,147,112)" stroke="#2d241633" stroke-width="0.6" stroke-linejoin="round"/><polygon points="300.0,115.5 272.0,197.0 233.8,172.5" fill="rgb(131,95,73)" stroke="#2d241633" stroke-width="0.6" stroke-linejoin="round"/><polygon points="300.0,115.5 377.0,178.7 272.0,197.0" fill="rgb(115,83,64)" stroke="#2d241633" stroke-width="0.6" stroke-linejoin="round"/><polygon points="327.3,330.2 264.4,364.5 285.3,283.4" fill="rgb(87,58,41)" stroke="#2d241633" stroke-width="0.6" stroke-linejoin="round"/><polygon points="233.5,331.2 285.3,283.4 327.3,330.2" fill="rgb(87,58,41)" stroke="#2d241633" stroke-width="0.6" stroke-linejoin="round"/><polygon points="233.8,172.5 250.0,80.2 221.4,130.3" fill="rgb(141,102,78)" stroke="#2d241633" stroke-width="0.6" stroke-linejoin="round"/><polygon points="300.0,115.5 233.8,172.5 221.4,130.3" fill="rgb(133,96,71)" stroke="#2d241633" stroke-width="0.6" stroke-linejoin="round"/><polygon points="233.5,331.2 264.4,364.5 285.3,283.4" fill="rgb(159,107,75)" stroke="#2d241633" stroke-width="0.6" stroke-linejoin="round"/><polygon points="377.0,178.7 373.0,145.1 378.1,273.2" fill="rgb(140,101,78)" stroke="#2d241633" stroke-width="0.6" stroke-linejoin="round"/><polygon points="327.3,330.2 378.1,273.2 355.3,359.8" fill="rgb(87,58,41)" stroke="#2d241633" stroke-width="0.6" stroke-linejoin="round"/><polygon points="300.0,115.5 373.0,145.1 377.0,178.7" fill="rgb(191,138,106)" stroke="#2d241633" stroke-width="0.6" stroke-linejoin="round"/><polygon points="354.0,321.8 327.3,330.2 378.1,273.2" fill="rgb(87,58,41)" stroke="#2d241633" stroke-width="0.6" stroke-linejoin="round"/><polygon points="300.0,115.5 221.4,130.3 350.8,100.6" fill="rgb(255,195,144)" stroke="#2d241633" stroke-width="0.6" stroke-linejoin="round"/><polygon points="300.0,115.5 350.8,100.6 373.0,145.1" fill="rgb(198,143,106)" stroke="#2d241633" stroke-width="0.6" stroke-linejoin="round"/><polygon points="373.0,145.1 350.8,100.6 345.3,55.2" fill="rgb(107,78,59)" stroke="#2d241633" stroke-width="0.6" stroke-linejoin="round"/><polygon points="354.0,321.8 378.1,273.2 355.3,359.8" fill="rgb(87,58,41)" stroke="#2d241633" stroke-width="0.6" stroke-linejoin="round"/><polygon points="276.7,359.8 233.5,331.2 264.4,364.5" fill="rgb(87,58,41)" stroke="#2d241633" stroke-width="0.6" stroke-linejoin="round"/><polygon points="221.4,130.3 174.9,249.4 210.3,209.5" fill="rgb(201,170,132)" stroke="#2d241633" stroke-width="0.6" stroke-linejoin="round"/><polygon points="276.7,359.8 264.4,364.5 355.3,359.8" fill="rgb(87,58,41)" stroke="#2d241633" stroke-width="0.6" stroke-linejoin="round"/><polygon points="221.4,130.3 210.3,209.5 350.8,100.6" fill="rgb(255,240,186)" stroke="#2d241633" stroke-width="0.6" stroke-linejoin="round"/><polygon points="228.3,310.8 276.7,359.8 233.5,331.2" fill="rgb(225,225,225)" stroke="#2d241633" stroke-width="0.6" stroke-linejoin="round"/><polygon points="276.7,359.8 355.3,359.8 354.0,321.8" fill="rgb(87,58,41)" stroke="#2d241633" stroke-width="0.6" stroke-linejoin="round"/><polygon points="174.9,249.4 228.3,310.8 210.3,209.5" fill="rgb(128,92,68)" stroke="#2d241633" stroke-width="0.6" stroke-linejoin="round"/><polygon points="228.3,310.8 307.7,303.3 276.7,359.8" fill="rgb(140,140,140)" stroke="#2d241633" stroke-width="0.6" stroke-linejoin="round"/><polygon points="307.7,303.3 354.0,321.8 276.7,359.8" fill="rgb(140,140,140)" stroke="#2d241633" stroke-width="0.6" stroke-linejoin="round"/><polygon points="350.8,100.6 210.3,209.5 271.7,198.9" fill="rgb(255,240,186)" stroke="#2d241633" stroke-width="0.6" stroke-linejoin="round"/><polygon points="350.8,100.6 271.7,198.9 386.6,218.6" fill="rgb(255,244,188)" stroke="#2d241633" stroke-width="0.6" stroke-linejoin="round"/><polygon points="258.7,254.7 307.7,303.3 228.3,310.8" fill="rgb(201,201,201)" stroke="#2d241633" stroke-width="0.6" stroke-linejoin="round"/><polygon points="208.1,261.5 228.3,310.8 258.7,254.7" fill="rgb(140,140,140)" stroke="#2d241633" stroke-width="0.6" stroke-linejoin="round"/><polygon points="386.6,218.6 271.7,198.9 307.7,303.3" fill="rgb(191,138,102)" stroke="#2d241633" stroke-width="0.6" stroke-linejoin="round"/><polygon points="210.3,209.5 208.1,261.5 220.6,227.8" fill="rgb(176,176,176)" stroke="#2d241633" stroke-width="0.6" stroke-linejoin="round"/><polygon points="210.3,209.5 220.6,227.8 271.7,198.9" fill="rgb(255,255,255)" stroke="#2d241633" stroke-width="0.6" stroke-linejoin="round"/><polygon points="208.1,261.5 258.7,254.7 220.6,227.8" fill="rgb(140,140,140)" stroke="#2d241633" stroke-width="0.6" stroke-linejoin="round"/><polygon points="271.7,198.9 220.6,227.8 258.7,254.7" fill="rgb(255,255,255)" stroke="#2d241633" stroke-width="0.6" stroke-linejoin="round"/></svg>